# xmcd
#
# Track frame offsets:
#	150
#	16499
#	29925
#	45148
#	59097
#	72379
#	87004
#	101629
#	114755
#	127432
#	140180
#	152559
#
# Disc length: 2185 seconds
#
# Revision: 0
# Processed by: cddbd v1.5.2PL0 Copyright (c) Steve Scherf et al.
# Submitted via: EasyCDDAExtractor 15.1.0.1
#
DISCID=ad08870c
DTITLE=สุนทราถภรณ์ - รื่นเริงเถลิงศก
DYEAR=2010
DGENRE=Other
TTITLE0=สวัสดีปีใหม่
TTITLE1=พรหมลิขิต
TTITLE2=สุขกันเถอะเรา
TTITLE3=เริงลีลาศ
TTITLE4=ตะลุงสากล
TTITLE5=เพลินเพลงแมมโบ้
TTITLE6=แซมบ้าหาคู่
TTITLE7=ฟลอร์เฟื่องฟ้า
TTITLE8=นางฟ้าจำแลง
TTITLE9=ริมฝั่งน้ำ
TTITLE10=ดาวล้อมเดือน
TTITLE11=ฃื่นฃีวิต
EXTD=
EXTT0=
EXTT1=
EXTT2=
EXTT3=
EXTT4=
EXTT5=
EXTT6=
EXTT7=
EXTT8=
EXTT9=
EXTT10=
EXTT11=
PLAYORDER=
